<svg xmlns="http://www.w3.org/2000/svg"
    width="24"
    height="24"
    viewBox="0 0 48 48">

    <circle fill="#43A047" cx="50%" cy="50%" r="50%" />

    <!--
        Make this map the Android icon exactly. Android adaptive icons take the inner (centered)
        2/3rds of the foreground's viewport and crop out the rest [1]. Our foreground drawable is
        scaled to 40% of its 48px viewport. So in this SVG viewport, it'll take up 40% of 150%,
        which is 60% with 20% of 48px for the padding on all 4 sides.

        [1] https://cs.android.com/android/platform/superproject/+/android-13.0.0_r31:frameworks/base/graphics/java/android/graphics/drawable/AdaptiveIconDrawable.java;l=106


        The icon in the Android drawable is scaled to 0.4 of the 48px foreground
        viewport. The mipmap scales by 1.5

         crops centers the foreground drawable and crops out
        the outer 1/3rd.
    -->
    <g transform="translate(9.6 9.6) scale(0.6 0.6)">
        <path
            fill="#ffffff"
            d="M22.85 26.5h9.05q1.2 0 2.05-.85.85-.85.85-2.05 0-1.2-.85-2.075-.85-.875-2.05-.875h-.6l-.1-.5q-.2-1.55-1.4-2.6T27 16.5q-1.3 0-2.4.65-1.1.65-1.5 1.8l-.1.35h-.4q-1.45 0-2.425 1.075Q19.2 21.45 19.2 22.9t1.075 2.525Q21.35 26.5 22.85 26.5ZM5 42q-1.2 0-2.1-.9Q2 40.2 2 39V10.5h3V39h36.5v3Zm6-6q-1.2 0-2.1-.9Q8 34.2 8 33V7q0-1.2.9-2.1Q9.8 4 11 4h13l3 3h16q1.2 0 2.1.9.9.9.9 2.1v23q0 1.2-.9 2.1-.9.9-2.1.9Zm0-3h32V10H25.75l-3-3H11v26Zm0 0V7v26Z" />
    </g>
</svg>
